<svg style="max-width:585px" version="1.1" viewBox="0 0 154.78 38.629" xmlns="http://www.w3.org/2000/svg" xmlns:xlink="http://www.w3.org/1999/xlink">
 <g transform="translate(6.2943e-8 -24.077)">
  <g fill="none">
   <path d="m105.68 50.6-3.1647 3.4888m-.0989-3.3211 3.3954 3.1534" stroke="#f55" stroke-width=".66146"></path>
   <path d="m121.58 25.039c1.0803-.03749 1.9831.932 1.9831 2.4537v.50647c0 1.4242.57038 2.4781 1.9778 2.4537" stroke="#648b8b" stroke-linecap="round" stroke-width=".52917"></path>
   <path d="m121.58 35.892c1.0803.0375 1.9831-.932 1.9831-2.4537v-.50647c0-1.4242.57038-2.4781 1.9779-2.4537" stroke="#648b8b" stroke-linecap="round" stroke-width=".52917"></path>
   <text x="-9.9415274" y="47.394417" font-family="cascadia_code" font-size="4.478px" letter-spacing="0px" stroke="#000000" stroke-width=".26458px" text-align="center" text-anchor="middle" word-spacing="0px" style="line-height:125%" xml:space="preserve"><tspan x="-9.9415274" y="47.394417" stroke-width=".26458px"></tspan></text>
  </g>
  <text x="140.0587" y="29.351707" fill="#648b8b" font-family="Arimo" font-size="3.7042px" letter-spacing="0px" stroke-width=".26458px" text-align="center" text-anchor="middle" word-spacing="0px" style="line-height:105%" xml:space="preserve"><tspan x="140.0587" y="29.351707">caller’s</tspan><tspan x="140.0587" y="33.241085">argument types</tspan></text>
  <text x="0.8667047" y="47.343384" fill="#666666" font-family="Arimo" font-size="3.7042px" letter-spacing="0px" stroke-width=".26458px" word-spacing="0px" style="line-height:105%" xml:space="preserve"><tspan x="0.8667047" y="47.343384" fill="#666666" font-size="3.7042px" stroke-width=".26458px">candidate</tspan></text>
  <g>
   <rect x="27.252" y="43.127" width="63.5" height="6.0854" fill="#fffffb" stroke="#cacaca" stroke-linecap="round" stroke-width=".52917"></rect>
   <text x="55.72113" y="47.368889" fill="#4d4d4d" font-family="cascadia_code" font-size="3.87px" letter-spacing="0px" stroke-width=".26458px" text-align="center" text-anchor="middle" word-spacing="0px" style="line-height:125%" xml:space="preserve"><tspan x="55.72113" y="47.368889" fill="#4d4d4d" font-size="3.87px" stroke-width=".26458px" text-align="center" text-anchor="middle">galaxy::Asteroid*</tspan></text>
   <rect x="90.752" y="43.127" width="26.723" height="6.0854" fill="#fffffb" stroke="#cacaca" stroke-linecap="round" stroke-width=".52917"></rect>
   <text x="101.60938" y="47.633469" fill="#4d4d4d" font-family="cascadia_code" font-size="3.87px" letter-spacing="0px" stroke-width=".26458px" text-align="center" text-anchor="middle" word-spacing="0px" style="line-height:125%" xml:space="preserve"><tspan x="101.60938" y="47.633469" fill="#4d4d4d" font-size="3.87px" stroke-width=".26458px" text-align="center" text-anchor="middle">float</tspan></text>
   <rect x="27.252" y="49.212" width="63.5" height="6.0854" fill="#fffffb" stroke="#cacaca" stroke-linecap="round" stroke-width=".52917"></rect>
   <text x="55.72113" y="53.4543" fill="#4d4d4d" font-family="cascadia_code" font-size="3.87px" letter-spacing="0px" stroke-width=".26458px" text-align="center" text-anchor="middle" word-spacing="0px" style="line-height:125%" xml:space="preserve"><tspan x="55.72113" y="53.4543" fill="#4d4d4d" font-size="3.87px" stroke-width=".26458px" text-align="center" text-anchor="middle">Target</tspan></text>
   <rect x="27.252" y="55.298" width="63.5" height="6.0854" fill="#fffffb" stroke="#cacaca" stroke-linecap="round" stroke-width=".52917"></rect>
   <text x="55.72113" y="59.539719" fill="#4d4d4d" font-family="cascadia_code" font-size="3.87px" letter-spacing="0px" stroke-width=".26458px" text-align="center" text-anchor="middle" word-spacing="0px" style="line-height:125%" xml:space="preserve"><tspan x="55.72113" y="59.539719" fill="#4d4d4d" font-size="3.87px" stroke-width=".26458px" text-align="center" text-anchor="middle">galaxy::Asteroid*</tspan></text>
   <rect x="90.752" y="55.298" width="26.723" height="6.0854" fill="#fffffb" stroke="#cacaca" stroke-linecap="round" stroke-width=".52917"></rect>
  </g>
  <g fill="#4d4d4d" font-family="cascadia_code" font-size="3.87px" letter-spacing="0px" stroke-width=".26458px" text-anchor="middle" word-spacing="0px">
   <text x="101.60938" y="59.804298" text-align="center" style="line-height:125%" xml:space="preserve"><tspan x="101.60938" y="59.804298" fill="#4d4d4d" font-size="3.87px" stroke-width=".26458px" text-align="center" text-anchor="middle">float</tspan></text>
   <text x="55.72113" y="31.493885" text-align="center" style="line-height:125%" xml:space="preserve"><tspan x="55.72113" y="31.493885" fill="#4d4d4d" font-size="3.87px" stroke-width=".26458px" text-align="center" text-anchor="middle">galaxy::Asteroid*</tspan></text>
   <text x="101.60938" y="31.758465" text-align="center" style="line-height:125%" xml:space="preserve"><tspan x="101.60938" y="31.758465" fill="#4d4d4d" font-size="3.87px" stroke-width=".26458px" text-align="center" text-anchor="middle">int</tspan></text>
  </g>
  <g transform="translate(-16.933 -236.41)">
   <path d="m72.76 270.01v5.9531" fill="none" stroke="#9fbaba" stroke-width="1.0583"></path>
   <path transform="matrix(.39001 0 0 .28306 120.54 229.26)" d="m-122.5 170.17-5.9971-10.387h11.994z" fill="#9fbaba"></path>
  </g>
  <g transform="translate(28.84 -236.41)">
   <path d="m72.76 270.01v5.9531" fill="none" stroke="#9fbaba" stroke-width="1.0583"></path>
   <path transform="matrix(.39001 0 0 .28306 120.54 229.26)" d="m-122.5 170.17-5.9971-10.387h11.994z" fill="#9fbaba"></path>
  </g>
  <g>
   <path d="m121.58 42.501c1.0803-.03749 1.9831.932 1.9831 2.4537v4.7398c0 1.4242.57038 2.4781 1.9778 2.4537" fill="none" stroke="#648b8b" stroke-linecap="round" stroke-width=".52917"></path>
   <path d="m121.58 61.821c1.0803.0375 1.9831-.932 1.9831-2.4537v-4.7398c0-1.4242.57038-2.4781 1.9779-2.4537" fill="none" stroke="#648b8b" stroke-linecap="round" stroke-width=".52917"></path>
   <text x="140.58786" y="51.047539" fill="#648b8b" font-family="Arimo" font-size="3.7042px" letter-spacing="0px" stroke-width=".26458px" text-align="center" text-anchor="middle" word-spacing="0px" style="line-height:105%" xml:space="preserve"><tspan x="140.58786" y="51.047539">function</tspan><tspan x="140.58786" y="54.936916">parameter types</tspan></text>
  </g>
  <circle cx="20.638" cy="52.123" r="2.5135" fill="#fff" stroke="#666" stroke-linecap="round" stroke-width=".26458"></circle>
  <text x="20.629478" y="53.360306" fill="#333333" font-family="cascadia_code" font-size="3.7042px" letter-spacing="0px" stroke-width=".26458px" text-align="center" text-anchor="middle" word-spacing="0px" style="line-height:125%" xml:space="preserve"><tspan x="20.629478" y="53.360306" fill="#666666" font-family="Arimo" font-size="3.9688px" stroke-width=".26458px">2</tspan></text>
  <circle cx="20.638" cy="46.037" r="2.5135" fill="#fff" stroke="#666" stroke-linecap="round" stroke-width=".26458"></circle>
  <text x="20.629478" y="47.274887" fill="#333333" font-family="cascadia_code" font-size="3.7042px" letter-spacing="0px" stroke-width=".26458px" text-align="center" text-anchor="middle" word-spacing="0px" style="line-height:125%" xml:space="preserve"><tspan x="20.629478" y="47.274887" fill="#666666" font-family="Arimo" font-size="3.9688px" stroke-width=".26458px">1</tspan></text>
  <circle cx="20.638" cy="58.208" r="2.5135" fill="#fff" stroke="#666" stroke-linecap="round" stroke-width=".26458"></circle>
  <g font-size="3.7042px" letter-spacing="0px" stroke-width=".26458px" word-spacing="0px">
   <text x="20.629478" y="59.445724" fill="#333333" font-family="cascadia_code" text-align="center" text-anchor="middle" style="line-height:125%" xml:space="preserve"><tspan x="20.629478" y="59.445724" fill="#666666" font-family="Arimo" font-size="3.9688px" stroke-width=".26458px">3</tspan></text>
   <text x="0.8667047" y="53.428787" fill="#666666" font-family="Arimo" style="line-height:105%" xml:space="preserve"><tspan x="0.8667047" y="53.428787" fill="#666666" font-size="3.7042px" stroke-width=".26458px">candidate</tspan></text>
   <text x="0.8667047" y="59.514191" fill="#666666" font-family="Arimo" style="line-height:105%" xml:space="preserve"><tspan x="0.8667047" y="59.514191" fill="#666666" font-size="3.7042px" stroke-width=".26458px">candidate</tspan></text>
  </g>
  <path id="path2298" d="m76.891 46.071 1.1012 1.6672s1.3069-2.2888 3.0553-3.3532" fill="none" stroke="#00bf00" stroke-linejoin="round" stroke-width=".52917"></path>
  <use transform="translate(-4.9415e-5 12.171)" width="100%" height="100%" xlink:href="#path2298"></use>
  <use id="use3627" transform="translate(32.544)" width="100%" height="100%" xlink:href="#path2298"></use>
  <use transform="translate(0 12.171)" width="100%" height="100%" xlink:href="#use3627"></use>
  <use transform="translate(-12.171 6.0854)" width="100%" height="100%" xlink:href="#path2298"></use>
 </g>
</svg>